<svg version="1.1" viewBox="0.0 0.0 956.7270341207349 299.31758530183725" fill="none" stroke="none" stroke-linecap="square" stroke-miterlimit="10" xmlns:xlink="http://www.w3.org/1999/xlink" xmlns="http://www.w3.org/2000/svg"><clipPath id="p.0"><path d="m0 0l956.72705 0l0 299.3176l-956.72705 0l0 -299.3176z" clip-rule="nonzero"/></clipPath><g clip-path="url(#p.0)"><path fill="#000000" fill-opacity="0.0" d="m0 0l956.72705 0l0 299.3176l-956.72705 0z" fill-rule="evenodd"/><path fill="#000000" fill-opacity="0.0" d="m133.72966 53.435696l0 209.03937" fill-rule="evenodd"/><path stroke="#000000" stroke-width="1.0" stroke-linejoin="round" stroke-linecap="butt" stroke-dasharray="1.0,3.0" d="m133.72966 53.435696l0 209.03937" fill-rule="evenodd"/><path fill="#000000" fill-opacity="0.0" d="m270.06036 98.3937l-0.94488525 165.73227" fill-rule="evenodd"/><path stroke="#000000" stroke-width="1.0" stroke-linejoin="round" stroke-linecap="butt" stroke-dasharray="1.0,3.0" d="m270.06036 98.3937l-0.94488525 165.73227" fill-rule="evenodd"/><path fill="#000000" fill-opacity="0.0" d="m353.2152 146.54593l0 118.26773" fill-rule="evenodd"/><path stroke="#000000" stroke-width="1.0" stroke-linejoin="round" stroke-linecap="butt" stroke-dasharray="1.0,3.0" d="m353.2152 146.54593l0 118.26773" fill-rule="evenodd"/><path fill="#000000" fill-opacity="0.0" d="m568.2336 149.68504l0 114.425186" fill-rule="evenodd"/><path stroke="#000000" stroke-width="1.0" stroke-linejoin="round" stroke-linecap="butt" stroke-dasharray="1.0,3.0" d="m568.2336 149.68504l0 114.425186" fill-rule="evenodd"/><path fill="#000000" fill-opacity="0.0" d="m649.0 98.3937l0 165.73227" fill-rule="evenodd"/><path stroke="#000000" stroke-width="1.0" stroke-linejoin="round" stroke-linecap="butt" stroke-dasharray="1.0,3.0" d="m649.0 98.3937l0 165.73227" fill-rule="evenodd"/><path fill="#000000" fill-opacity="0.0" d="m821.9974 52.33858l0 209.03938" fill-rule="evenodd"/><path stroke="#000000" stroke-width="1.0" stroke-linejoin="round" stroke-linecap="butt" stroke-dasharray="1.0,3.0" d="m821.9974 52.33858l0 209.03938" fill-rule="evenodd"/><path fill="#000000" fill-opacity="0.0" d="m43.82677 54.74803l865.8898 0" fill-rule="evenodd"/><path stroke="#000000" stroke-width="1.0" stroke-linejoin="round" stroke-linecap="butt" d="m43.82677 54.74803l862.46265 0" fill-rule="evenodd"/><path fill="#000000" stroke="#000000" stroke-width="1.0" stroke-linecap="butt" d="m906.2894 54.74803l-1.1245728 1.1245842l3.0897827 -1.1245842l-3.0897827 -1.1245842z" fill-rule="evenodd"/><path fill="#000000" fill-opacity="0.0" d="m43.82677 263.10236l865.8898 0" fill-rule="evenodd"/><path stroke="#000000" stroke-width="4.0" stroke-linejoin="round" stroke-linecap="butt" d="m43.82677 263.10236l852.1814 0" fill-rule="evenodd"/><path fill="#000000" stroke="#000000" stroke-width="4.0" stroke-linecap="butt" d="m896.0082 263.10236l-4.498352 4.498352l12.35907 -4.498352l-12.35907 -4.4983215z" fill-rule="evenodd"/><path fill="#000000" fill-opacity="0.0" d="m123.50656 54.422573l706.7716 -0.6614189" fill-rule="evenodd"/><path stroke="#6aa84f" stroke-width="4.0" stroke-linejoin="round" stroke-linecap="butt" d="m138.66655 54.408382l676.4516 -0.63303757" fill-rule="evenodd"/><path fill="#6aa84f" stroke="#6aa84f" stroke-width="4.0" stroke-linecap="butt" d="m125.50656 54.4207c-0.00340271 -3.6340332 2.939804 -6.582752 6.5738373 -6.586155c3.6340332 -0.0033988953 6.5827484 2.939808 6.586151 6.573841c0.00340271 3.6340294 -2.939804 6.582752 -6.5738373 6.586155c-3.6340332 0.0033988953 -6.5827484 -2.939808 -6.586151 -6.573841z" fill-rule="nonzero"/><path fill="#6aa84f" stroke="#6aa84f" stroke-width="4.0" stroke-linecap="butt" d="m828.2782 53.763027c0.0034179688 3.6340294 -2.9398193 6.582752 -6.5737915 6.586155c-3.6340332 0.0033988953 -6.5827637 -2.939808 -6.5861816 -6.573841c-0.0034179688 -3.6340294 2.9398193 -6.582752 6.5738525 -6.586155c3.6340332 -0.0033988953 6.5827637 2.939808 6.5861206 6.573841z" fill-rule="nonzero"/><path fill="#000000" fill-opacity="0.0" d="m43.82677 96.61942l865.8898 0" fill-rule="evenodd"/><path stroke="#000000" stroke-width="1.0" stroke-linejoin="round" stroke-linecap="butt" d="m43.82677 96.61942l862.46265 0" fill-rule="evenodd"/><path fill="#000000" stroke="#000000" stroke-width="1.0" stroke-linecap="butt" d="m906.2894 96.61942l-1.1245728 1.1245804l3.0897827 -1.1245804l-3.0897827 -1.1245804z" fill-rule="evenodd"/><path fill="#000000" fill-opacity="0.0" d="m43.82677 144.01575l865.8898 0" fill-rule="evenodd"/><path stroke="#000000" stroke-width="1.0" stroke-linejoin="round" stroke-linecap="butt" d="m43.82677 144.01575l862.46265 0" fill-rule="evenodd"/><path fill="#000000" stroke="#000000" stroke-width="1.0" stroke-linecap="butt" d="m906.2894 144.01575l-1.1245728 1.124588l3.0897827 -1.124588l-3.0897827 -1.124588z" fill-rule="evenodd"/><path fill="#000000" fill-opacity="0.0" d="m123.50656 263.10236l149.70078 0" fill-rule="evenodd"/><path stroke="#6aa84f" stroke-width="4.0" stroke-linejoin="round" stroke-linecap="butt" d="m138.66656 263.10236l119.38077 0" fill-rule="evenodd"/><path fill="#6aa84f" stroke="#6aa84f" stroke-width="4.0" stroke-linecap="butt" d="m125.50656 263.10236c0 -3.6340332 2.9459686 -6.5799866 6.580002 -6.5799866c3.6340332 0 6.580002 2.9459534 6.580002 6.5799866c0 3.6340332 -2.9459686 6.580017 -6.580002 6.580017c-3.6340332 0 -6.580002 -2.945984 -6.580002 -6.580017z" fill-rule="nonzero"/><path fill="#6aa84f" stroke="#6aa84f" stroke-width="4.0" stroke-linecap="butt" d="m271.20734 263.10236c0 3.6340332 -2.9459534 6.580017 -6.5799866 6.580017c-3.6340332 0 -6.5799866 -2.945984 -6.5799866 -6.580017c0 -3.6340332 2.9459534 -6.5799866 6.5799866 -6.5799866c3.6340332 0 6.5799866 2.9459534 6.5799866 6.5799866z" fill-rule="nonzero"/><path fill="#000000" fill-opacity="0.0" d="m264.0 96.30708l395.46454 0" fill-rule="evenodd"/><path stroke="#e69138" stroke-width="4.0" stroke-linejoin="round" stroke-linecap="butt" d="m279.16 96.30708l365.14456 0" fill-rule="evenodd"/><path fill="#e69138" stroke="#e69138" stroke-width="4.0" stroke-linecap="butt" d="m266.0 96.30708c0 -3.6340332 2.9459534 -6.579994 6.5799866 -6.579994c3.6340332 0 6.580017 2.945961 6.580017 6.579994c0 3.6340332 -2.945984 6.580002 -6.580017 6.580002c-3.6340332 0 -6.5799866 -2.9459686 -6.5799866 -6.580002z" fill-rule="nonzero"/><path fill="#e69138" stroke="#e69138" stroke-width="4.0" stroke-linecap="butt" d="m657.46454 96.30708c0 3.6340332 -2.9459229 6.580002 -6.579956 6.580002c-3.6340332 0 -6.580017 -2.9459686 -6.580017 -6.580002c0 -3.6340332 2.945984 -6.579994 6.580017 -6.579994c3.6340332 0 6.579956 2.945961 6.579956 6.579994z" fill-rule="nonzero"/><path fill="#000000" fill-opacity="0.0" d="m345.0 145.59055l230.70868 0" fill-rule="evenodd"/><path stroke="#cc0000" stroke-width="4.0" stroke-linejoin="round" stroke-linecap="butt" d="m360.15997 145.59055l200.38873 0" fill-rule="evenodd"/><path fill="#cc0000" stroke="#cc0000" stroke-width="4.0" stroke-linecap="butt" d="m347.0 145.59055c0 -3.6340332 2.9459534 -6.5799866 6.5799866 -6.5799866c3.6340332 0 6.580017 2.9459534 6.580017 6.5799866c0 3.6340332 -2.945984 6.580002 -6.580017 6.580002c-3.6340332 0 -6.5799866 -2.9459686 -6.5799866 -6.580002z" fill-rule="nonzero"/><path fill="#cc0000" stroke="#cc0000" stroke-width="4.0" stroke-linecap="butt" d="m573.7087 145.59055c0 3.6340332 -2.945984 6.580002 -6.580017 6.580002c-3.6340332 0 -6.580017 -2.9459686 -6.580017 -6.580002c0 -3.6340332 2.945984 -6.5799866 6.580017 -6.5799866c3.6340332 0 6.580017 2.9459534 6.580017 6.5799866z" fill-rule="nonzero"/><path fill="#000000" fill-opacity="0.0" d="m133.98425 12.732284l32.44095 0l0 42.015747l-32.44095 0z" fill-rule="evenodd"/><path fill="#000000" d="m144.85925 32.996033l0.671875 -6.609377l6.796875 0l0 1.5625l-5.359375 0l-0.40625 3.609375q0.984375 -0.5625 2.21875 -0.5625q1.8125 0 2.875 1.2031269q1.0625 1.1875 1.0625 3.21875q0 2.0625 -1.109375 3.25q-1.09375 1.171875 -3.09375 1.171875q-1.75 0 -2.859375 -0.96875q-1.109375 -0.984375 -1.265625 -2.703125l1.59375 0q0.15625 1.140625 0.8125 1.71875q0.65625 0.578125 1.71875 0.578125q1.1875 0 1.84375 -0.796875q0.671875 -0.8125 0.671875 -2.21875q0 -1.328125 -0.71875 -2.140625q-0.71875 -0.8125 -1.921875 -0.8125q-1.109375 0 -1.734375 0.484375l-0.453125 0.375l-1.34375 -0.359375z" fill-rule="nonzero"/><path fill="#000000" fill-opacity="0.0" d="m821.9974 11.419948l41.921265 0l0 42.015747l-41.921265 0z" fill-rule="evenodd"/><path fill="#000000" d="m840.79425 38.339947l-8.6875 0l0 -1.21875l4.578125 -5.09375q1.03125 -1.1562519 1.40625 -1.8750019q0.390625 -0.734375 0.390625 -1.5q0 -1.046875 -0.625 -1.703125q-0.625 -0.671875 -1.671875 -0.671875q-1.265625 0 -1.96875 0.71875q-0.6875 0.71875 -0.6875 1.984375l-1.6875 0q0 -1.828125 1.171875 -2.953125q1.1875 -1.140625 3.171875 -1.140625q1.84375 0 2.921875 0.984375q1.078125 0.96875 1.078125 2.578125q0 1.953125 -2.5 4.656252l-3.546875 3.859375l6.65625 0l0 1.375zm2.554016 -6.656252l0.671875 -6.609375l6.796875 0l0 1.5625l-5.359375 0l-0.40625 3.609375q0.984375 -0.5625 2.21875 -0.5625q1.8125 0 2.875 1.203125q1.0625 1.1875019 1.0625 3.218752q0 2.0625 -1.109375 3.25q-1.09375 1.171875 -3.09375 1.171875q-1.75 0 -2.859375 -0.96875q-1.109375 -0.984375 -1.265625 -2.703125l1.59375 0q0.15625 1.140625 0.8125 1.71875q0.65625 0.578125 1.71875 0.578125q1.1875 0 1.84375 -0.796875q0.671875 -0.8125 0.671875 -2.21875q0 -1.328125 -0.71875 -2.140627q-0.71875 -0.8125 -1.921875 -0.8125q-1.109375 0 -1.734375 0.484375l-0.453125 0.3750019l-1.34375 -0.3593769z" fill-rule="nonzero"/><path fill="#000000" fill-opacity="0.0" d="m275.59317 54.952755l41.921265 0l0 42.01575l-41.921265 0z" fill-rule="evenodd"/><path fill="#000000" d="m291.2338 81.87276l-1.6875 0l0 -11.234375l-3.40625 1.25l0 -1.53125l4.828125 -1.8125l0.265625 0l0 13.328125zm13.257172 -5.65625q0 2.953125 -1.015625 4.40625q-1.015625 1.4375 -3.15625 1.4375q-2.125 0 -3.15625 -1.40625q-1.015625 -1.40625 -1.046875 -4.203125l0 -2.25q0 -2.9375 1.0 -4.359375q1.015625 -1.421875 3.1875 -1.421875q2.140625 0 3.140625 1.375q1.015625 1.375 1.046875 4.234375l0 2.1875zm-1.6875 -2.3125q0 -2.140625 -0.609375 -3.109375q-0.59375 -0.984375 -1.890625 -0.984375q-1.296875 0 -1.890625 0.984375q-0.59375 0.96875 -0.609375 2.984375l0 2.703125q0 2.140625 0.625 3.171875q0.625 1.03125 1.890625 1.03125q1.25 0 1.84375 -0.96875q0.609375 -0.96875 0.640625 -3.046875l0 -2.765625z" fill-rule="nonzero"/><path fill="#000000" fill-opacity="0.0" d="m649.5827 55.07349l41.921265 0l0 42.01575l-41.921265 0z" fill-rule="evenodd"/><path fill="#000000" d="m668.3796 81.99349l-8.6875 0l0 -1.21875l4.578125 -5.09375q1.03125 -1.15625 1.40625 -1.875q0.390625 -0.734375 0.390625 -1.5q0 -1.046875 -0.625 -1.703125q-0.625 -0.671875 -1.671875 -0.671875q-1.265625 0 -1.96875 0.71875q-0.6875 0.71875 -0.6875 1.984375l-1.6875 0q0 -1.828125 1.171875 -2.953125q1.1875 -1.140625 3.171875 -1.140625q1.84375 0 2.921875 0.984375q1.078125 0.96875 1.078125 2.578125q0 1.953125 -2.5 4.65625l-3.546875 3.859375l6.65625 0l0 1.375zm10.100891 -5.65625q0 2.953125 -1.015625 4.40625q-1.015625 1.4375 -3.15625 1.4375q-2.125 0 -3.15625 -1.40625q-1.015625 -1.40625 -1.046875 -4.203125l0 -2.25q0 -2.9375 1.0 -4.359375q1.015625 -1.421875 3.1875 -1.421875q2.140625 0 3.140625 1.375q1.015625 1.375 1.046875 4.234375l0 2.1875zm-1.6875 -2.3125q0 -2.140625 -0.609375 -3.109375q-0.59375 -0.984375 -1.890625 -0.984375q-1.296875 0 -1.890625 0.984375q-0.59375 0.96875 -0.609375 2.984375l0 2.703125q0 2.140625 0.625 3.171875q0.625 1.03125 1.890625 1.03125q1.25 0 1.84375 -0.96875q0.609375 -0.96875 0.640625 -3.046875l0 -2.765625z" fill-rule="nonzero"/><path fill="#000000" fill-opacity="0.0" d="m362.77167 103.55905l41.921234 0l0 42.015747l-41.921234 0z" fill-rule="evenodd"/><path fill="#000000" d="m378.4123 130.47905l-1.6875 0l0 -11.234375l-3.40625 1.25l0 -1.53125l4.828125 -1.8125l0.265625 0l0 13.328125zm7.3821716 -7.453125l1.265625 0q1.203125 -0.015625 1.875 -0.625q0.6875 -0.609375 0.6875 -1.65625q0 -2.328125 -2.3125 -2.328125q-1.09375 0 -1.75 0.625q-0.65625 0.625 -0.65625 1.65625l-1.6875 0q0 -1.578125 1.15625 -2.625q1.15625 -1.046875 2.9375 -1.046875q1.875 0 2.9375 1.0q1.0625 1.0 1.0625 2.765625q0 0.859375 -0.5625 1.671875q-0.5625 0.8125 -1.515625 1.203125q1.09375 0.359375 1.6875 1.15625q0.59375 0.796875 0.59375 1.953125q0 1.796875 -1.171875 2.84375q-1.15625 1.046875 -3.03125 1.046875q-1.859375 0 -3.03125 -1.015625q-1.171875 -1.015625 -1.171875 -2.671875l1.6875 0q0 1.046875 0.6875 1.6875q0.6875 0.625 1.828125 0.625q1.21875 0 1.859375 -0.640625q0.65625 -0.640625 0.65625 -1.828125q0 -1.15625 -0.71875 -1.78125q-0.703125 -0.625 -2.046875 -0.640625l-1.265625 0l0 -1.375z" fill-rule="nonzero"/><path fill="#000000" fill-opacity="0.0" d="m568.2336 103.55905l41.921265 0l0 42.015747l-41.921265 0z" fill-rule="evenodd"/><path fill="#000000" d="m583.8742 130.47905l-1.6875 0l0 -11.234375l-3.40625 1.25l0 -1.53125l4.828125 -1.8125l0.265625 0l0 13.328125zm13.507202 -12.3125l-5.5 12.3125l-1.765625 0l5.46875 -11.875l-7.171875 0l0 -1.390625l8.96875 0l0 0.953125z" fill-rule="nonzero"/><path fill="#000000" fill-opacity="0.0" d="m262.73227 262.7244l94.20474 0" fill-rule="evenodd"/><path stroke="#e69138" stroke-width="4.0" stroke-linejoin="round" stroke-linecap="butt" d="m277.89227 262.7244l63.884735 0" fill-rule="evenodd"/><path fill="#e69138" stroke="#e69138" stroke-width="4.0" stroke-linecap="butt" d="m264.73227 262.7244c0 -3.6340332 2.945984 -6.5799866 6.580017 -6.5799866c3.6340332 0 6.5799866 2.9459534 6.5799866 6.5799866c0 3.6340332 -2.9459534 6.580017 -6.5799866 6.580017c-3.6340332 0 -6.580017 -2.945984 -6.580017 -6.580017z" fill-rule="nonzero"/><path fill="#e69138" stroke="#e69138" stroke-width="4.0" stroke-linecap="butt" d="m354.937 262.7244c0 3.6340332 -2.945984 6.580017 -6.580017 6.580017c-3.6340332 0 -6.5799866 -2.945984 -6.5799866 -6.580017c0 -3.6340332 2.9459534 -6.5799866 6.5799866 -6.5799866c3.6340332 0 6.580017 2.9459534 6.580017 6.5799866z" fill-rule="nonzero"/><path fill="#000000" fill-opacity="0.0" d="m349.61417 263.10236l221.9213 0" fill-rule="evenodd"/><path stroke="#cc0000" stroke-width="4.0" stroke-linejoin="round" stroke-linecap="butt" d="m364.77417 263.10236l191.60126 0" fill-rule="evenodd"/><path fill="#cc0000" stroke="#cc0000" stroke-width="4.0" stroke-linecap="butt" d="m351.61417 263.10236c0 -3.6340332 2.945984 -6.5799866 6.580017 -6.5799866c3.6340332 0 6.5799866 2.9459534 6.5799866 6.5799866c0 3.6340332 -2.9459534 6.580017 -6.5799866 6.580017c-3.6340332 0 -6.580017 -2.945984 -6.580017 -6.580017z" fill-rule="nonzero"/><path fill="#cc0000" stroke="#cc0000" stroke-width="4.0" stroke-linecap="butt" d="m569.53546 263.10236c0 3.6340332 -2.945984 6.580017 -6.580017 6.580017c-3.6340332 0 -6.580017 -2.945984 -6.580017 -6.580017c0 -3.6340332 2.945984 -6.5799866 6.580017 -6.5799866c3.6340332 0 6.580017 2.9459534 6.580017 6.5799866z" fill-rule="nonzero"/><path fill="#000000" fill-opacity="0.0" d="m562.10236 262.9134l92.409485 0" fill-rule="evenodd"/><path stroke="#e69138" stroke-width="4.0" stroke-linejoin="round" stroke-linecap="butt" d="m577.2623 262.9134l62.089478 0" fill-rule="evenodd"/><path fill="#e69138" stroke="#e69138" stroke-width="4.0" stroke-linecap="butt" d="m564.10236 262.9134c0 -3.6340332 2.945984 -6.580017 6.580017 -6.580017c3.6340332 0 6.580017 2.945984 6.580017 6.580017c0 3.6340332 -2.945984 6.5799866 -6.580017 6.5799866c-3.6340332 0 -6.580017 -2.9459534 -6.580017 -6.5799866z" fill-rule="nonzero"/><path fill="#e69138" stroke="#e69138" stroke-width="4.0" stroke-linecap="butt" d="m652.51184 262.9134c0 3.6340332 -2.945984 6.5799866 -6.580017 6.5799866c-3.6340332 0 -6.580017 -2.9459534 -6.580017 -6.5799866c0 -3.6340332 2.945984 -6.580017 6.580017 -6.580017c3.6340332 0 6.580017 2.945984 6.580017 6.580017z" fill-rule="nonzero"/><path fill="#000000" fill-opacity="0.0" d="m645.0 263.10236l182.92914 0" fill-rule="evenodd"/><path stroke="#6aa84f" stroke-width="4.0" stroke-linejoin="round" stroke-linecap="butt" d="m660.16 263.10236l152.60913 0" fill-rule="evenodd"/><path fill="#6aa84f" stroke="#6aa84f" stroke-width="4.0" stroke-linecap="butt" d="m647.0 263.10236c0 -3.6340332 2.945984 -6.5799866 6.580017 -6.5799866c3.6340332 0 6.579956 2.9459534 6.579956 6.5799866c0 3.6340332 -2.9459229 6.580017 -6.579956 6.580017c-3.6340332 0 -6.580017 -2.945984 -6.580017 -6.580017z" fill-rule="nonzero"/><path fill="#6aa84f" stroke="#6aa84f" stroke-width="4.0" stroke-linecap="butt" d="m825.92914 263.10236c0 3.6340332 -2.945984 6.580017 -6.580017 6.580017c-3.6340332 0 -6.580017 -2.945984 -6.580017 -6.580017c0 -3.6340332 2.945984 -6.5799866 6.580017 -6.5799866c3.6340332 0 6.580017 2.9459534 6.580017 6.5799866z" fill-rule="nonzero"/><path fill="#000000" fill-opacity="0.0" d="m133.98425 220.70866l32.44095 0l0 42.01573l-32.44095 0z" fill-rule="evenodd"/><path fill="#000000" d="m144.85925 240.97241l0.671875 -6.609375l6.796875 0l0 1.5625l-5.359375 0l-0.40625 3.609375q0.984375 -0.5625 2.21875 -0.5625q1.8125 0 2.875 1.203125q1.0625 1.1875 1.0625 3.21875q0 2.0625 -1.109375 3.25q-1.09375 1.171875 -3.09375 1.171875q-1.75 0 -2.859375 -0.96875q-1.109375 -0.984375 -1.265625 -2.703125l1.59375 0q0.15625 1.140625 0.8125 1.71875q0.65625 0.578125 1.71875 0.578125q1.1875 0 1.84375 -0.796875q0.671875 -0.8125 0.671875 -2.21875q0 -1.328125 -0.71875 -2.140625q-0.71875 -0.8125 -1.921875 -0.8125q-1.109375 0 -1.734375 0.484375l-0.453125 0.375l-1.34375 -0.359375z" fill-rule="nonzero"/><path fill="#000000" fill-opacity="0.0" d="m269.11548 220.70866l48.409454 0l0 42.01573l-48.409454 0z" fill-rule="evenodd"/><path fill="#000000" d="m284.7561 247.62866l-1.6875 0l0 -11.234375l-3.40625 1.25l0 -1.53125l4.828125 -1.8125l0.265625 0l0 13.328125zm13.257172 -5.65625q0 2.953125 -1.015625 4.40625q-1.015625 1.4375 -3.15625 1.4375q-2.125 0 -3.15625 -1.40625q-1.015625 -1.40625 -1.046875 -4.203125l0 -2.25q0 -2.9375 1.0 -4.359375q1.015625 -1.421875 3.1875 -1.421875q2.140625 0 3.140625 1.375q1.015625 1.375 1.046875 4.234375l0 2.1875zm-1.6875 -2.3125q0 -2.140625 -0.609375 -3.109375q-0.59375 -0.984375 -1.890625 -0.984375q-1.296875 0 -1.890625 0.984375q-0.59375 0.96875 -0.609375 2.984375l0 2.703125q0 2.140625 0.625 3.171875q0.625 1.03125 1.890625 1.03125q1.25 0 1.84375 -0.96875q0.609375 -0.96875 0.640625 -3.046875l0 -2.765625z" fill-rule="nonzero"/><path fill="#000000" fill-opacity="0.0" d="m353.2152 222.7979l48.409454 0l0 42.015762l-48.409454 0z" fill-rule="evenodd"/><path fill="#000000" d="m368.85583 249.7179l-1.6875 0l0 -11.234375l-3.40625 1.25l0 -1.53125l4.828125 -1.8125l0.265625 0l0 13.328125zm7.3821716 -7.453125l1.265625 0q1.203125 -0.015625 1.875 -0.625q0.6875 -0.609375 0.6875 -1.65625q0 -2.328125 -2.3125 -2.328125q-1.09375 0 -1.75 0.625q-0.65625 0.625 -0.65625 1.65625l-1.6875 0q0 -1.578125 1.15625 -2.625q1.15625 -1.046875 2.9375 -1.046875q1.875 0 2.9375 1.0q1.0625 1.0 1.0625 2.765625q0 0.859375 -0.5625 1.671875q-0.5625 0.8125 -1.515625 1.203125q1.09375 0.359375 1.6875 1.15625q0.59375 0.796875 0.59375 1.953125q0 1.796875 -1.171875 2.84375q-1.15625 1.046875 -3.03125 1.046875q-1.859375 0 -3.03125 -1.015625q-1.171875 -1.015625 -1.171875 -2.671875l1.6875 0q0 1.046875 0.6875 1.6875q0.6875 0.625 1.828125 0.625q1.21875 0 1.859375 -0.640625q0.65625 -0.640625 0.65625 -1.828125q0 -1.15625 -0.71875 -1.78125q-0.703125 -0.625 -2.046875 -0.640625l-1.265625 0l0 -1.375z" fill-rule="nonzero"/><path fill="#000000" fill-opacity="0.0" d="m568.2336 222.7979l48.409485 0l0 42.015762l-48.409485 0z" fill-rule="evenodd"/><path fill="#000000" d="m583.8742 249.7179l-1.6875 0l0 -11.234375l-3.40625 1.25l0 -1.53125l4.828125 -1.8125l0.265625 0l0 13.328125zm13.507202 -12.3125l-5.5 12.3125l-1.765625 0l5.46875 -11.875l-7.171875 0l0 -1.390625l8.96875 0l0 0.953125z" fill-rule="nonzero"/><path fill="#000000" fill-opacity="0.0" d="m649.0 222.7979l48.409424 0l0 42.015762l-48.409424 0z" fill-rule="evenodd"/><path fill="#000000" d="m667.7969 249.7179l-8.6875 0l0 -1.21875l4.578125 -5.09375q1.03125 -1.15625 1.40625 -1.875q0.390625 -0.734375 0.390625 -1.5q0 -1.046875 -0.625 -1.703125q-0.625 -0.671875 -1.671875 -0.671875q-1.265625 0 -1.96875 0.71875q-0.6875 0.71875 -0.6875 1.984375l-1.6875 0q0 -1.828125 1.171875 -2.953125q1.1875 -1.140625 3.171875 -1.140625q1.84375 0 2.921875 0.984375q1.078125 0.96875 1.078125 2.578125q0 1.953125 -2.5 4.65625l-3.546875 3.859375l6.65625 0l0 1.375zm10.100952 -5.65625q0 2.953125 -1.015625 4.40625q-1.015625 1.4375 -3.15625 1.4375q-2.125 0 -3.15625 -1.40625q-1.015625 -1.40625 -1.046875 -4.203125l0 -2.25q0 -2.9375 1.0 -4.359375q1.015625 -1.421875 3.1875 -1.421875q2.140625 0 3.140625 1.375q1.015625 1.375 1.046875 4.234375l0 2.1875zm-1.6875 -2.3125q0 -2.140625 -0.609375 -3.109375q-0.59375 -0.984375 -1.890625 -0.984375q-1.296875 0 -1.890625 0.984375q-0.59375 0.96875 -0.609375 2.984375l0 2.703125q0 2.140625 0.625 3.171875q0.625 1.03125 1.890625 1.03125q1.25 0 1.84375 -0.96875q0.609375 -0.96875 0.640625 -3.046875l0 -2.765625z" fill-rule="nonzero"/><path fill="#000000" fill-opacity="0.0" d="m821.9974 222.7979l48.409424 0l0 42.015762l-48.409424 0z" fill-rule="evenodd"/><path fill="#000000" d="m840.79425 249.7179l-8.6875 0l0 -1.21875l4.578125 -5.09375q1.03125 -1.15625 1.40625 -1.875q0.390625 -0.734375 0.390625 -1.5q0 -1.046875 -0.625 -1.703125q-0.625 -0.671875 -1.671875 -0.671875q-1.265625 0 -1.96875 0.71875q-0.6875 0.71875 -0.6875 1.984375l-1.6875 0q0 -1.828125 1.171875 -2.953125q1.1875 -1.140625 3.171875 -1.140625q1.84375 0 2.921875 0.984375q1.078125 0.96875 1.078125 2.578125q0 1.953125 -2.5 4.65625l-3.546875 3.859375l6.65625 0l0 1.375zm2.554016 -6.65625l0.671875 -6.609375l6.796875 0l0 1.5625l-5.359375 0l-0.40625 3.609375q0.984375 -0.5625 2.21875 -0.5625q1.8125 0 2.875 1.203125q1.0625 1.1875 1.0625 3.21875q0 2.0625 -1.109375 3.25q-1.09375 1.171875 -3.09375 1.171875q-1.75 0 -2.859375 -0.96875q-1.109375 -0.984375 -1.265625 -2.703125l1.59375 0q0.15625 1.140625 0.8125 1.71875q0.65625 0.578125 1.71875 0.578125q1.1875 0 1.84375 -0.796875q0.671875 -0.8125 0.671875 -2.21875q0 -1.328125 -0.71875 -2.140625q-0.71875 -0.8125 -1.921875 -0.8125q-1.109375 0 -1.734375 0.484375l-0.453125 0.375l-1.34375 -0.359375z" fill-rule="nonzero"/></g></svg>