<svg version="1.1" viewBox="0.0 0.0 956.7270341207349 195.3254593175853" fill="none" stroke="none" stroke-linecap="square" stroke-miterlimit="10" xmlns:xlink="http://www.w3.org/1999/xlink" xmlns="http://www.w3.org/2000/svg"><clipPath id="p.0"><path d="m0 0l956.72705 0l0 195.32545l-956.72705 0l0 -195.32545z" clip-rule="nonzero"/></clipPath><g clip-path="url(#p.0)"><path fill="#000000" fill-opacity="0.0" d="m0 0l956.72705 0l0 195.32545l-956.72705 0z" fill-rule="evenodd"/><path fill="#000000" fill-opacity="0.0" d="m67.826775 46.74803l824.34644 0" fill-rule="evenodd"/><path stroke="#000000" stroke-width="1.0" stroke-linejoin="round" stroke-linecap="butt" d="m67.826775 46.74803l820.9194 0" fill-rule="evenodd"/><path fill="#000000" stroke="#000000" stroke-width="1.0" stroke-linecap="butt" d="m888.74615 46.74803l-1.1245728 1.1245842l3.0897217 -1.1245842l-3.0897217 -1.1245842z" fill-rule="evenodd"/><path fill="#000000" fill-opacity="0.0" d="m162.76903 46.257217l336.8504 0.50393677" fill-rule="evenodd"/><path stroke="#6aa84f" stroke-width="4.0" stroke-linejoin="round" stroke-linecap="butt" d="m177.92902 46.279896l306.53043 0.45858002" fill-rule="evenodd"/><path fill="#6aa84f" stroke="#6aa84f" stroke-width="4.0" stroke-linecap="butt" d="m164.76903 46.26021c0.005432129 -3.6340294 2.9558105 -6.5755844 6.5898285 -6.5701485c3.6340332 0.0054397583 6.575592 2.9558067 6.57016 6.589836c-0.0054473877 3.6340294 -2.9558105 6.575588 -6.5898438 6.5701485c-3.6340332 -0.0054359436 -6.575577 -2.9558067 -6.5701447 -6.589836z" fill-rule="nonzero"/><path fill="#6aa84f" stroke="#6aa84f" stroke-width="4.0" stroke-linecap="butt" d="m497.61942 46.758163c-0.005432129 3.6340294 -2.9558105 6.5755844 -6.589813 6.5701485c-3.6340332 -0.0054359436 -6.575592 -2.9558067 -6.57016 -6.589836c0.005432129 -3.6340294 2.9558105 -6.5755844 6.5898438 -6.5701485c3.6340332 0.0054359436 6.5755615 2.9558067 6.5701294 6.589836z" fill-rule="nonzero"/><path fill="#000000" fill-opacity="0.0" d="m457.18372 10.257217l33.070892 0l0 42.015747l-33.070892 0z" fill-rule="evenodd"/><path fill="#000000" fill-opacity="0.0" d="m67.826775 88.61942l824.34644 0" fill-rule="evenodd"/><path stroke="#000000" stroke-width="1.0" stroke-linejoin="round" stroke-linecap="butt" d="m67.826775 88.61942l820.9194 0" fill-rule="evenodd"/><path fill="#000000" stroke="#000000" stroke-width="1.0" stroke-linecap="butt" d="m888.74615 88.61942l-1.1245728 1.1245804l3.0897217 -1.1245804l-3.0897217 -1.1245804z" fill-rule="evenodd"/><path fill="#000000" fill-opacity="0.0" d="m314.1181 88.61942l526.86615 0" fill-rule="evenodd"/><path stroke="#e69138" stroke-width="4.0" stroke-linejoin="round" stroke-linecap="butt" d="m329.2781 88.61942l496.5461 0" fill-rule="evenodd"/><path fill="#e69138" stroke="#e69138" stroke-width="4.0" stroke-linecap="butt" d="m316.1181 88.61942c0 -3.6340332 2.945984 -6.580002 6.580017 -6.580002c3.6340332 0 6.5799866 2.9459686 6.5799866 6.580002c0 3.6340332 -2.9459534 6.580002 -6.5799866 6.580002c-3.6340332 0 -6.580017 -2.9459686 -6.580017 -6.580002z" fill-rule="nonzero"/><path fill="#e69138" stroke="#e69138" stroke-width="4.0" stroke-linecap="butt" d="m838.98425 88.61942c0 3.6340332 -2.945984 6.580002 -6.580017 6.580002c-3.6340332 0 -6.579956 -2.9459686 -6.579956 -6.580002c0 -3.6340332 2.9459229 -6.580002 6.579956 -6.580002c3.6340332 0 6.580017 2.9459686 6.580017 6.580002z" fill-rule="nonzero"/><path fill="#000000" fill-opacity="0.0" d="m67.826775 136.01575l824.34644 0" fill-rule="evenodd"/><path stroke="#000000" stroke-width="1.0" stroke-linejoin="round" stroke-linecap="butt" d="m67.826775 136.01575l820.9194 0" fill-rule="evenodd"/><path fill="#000000" stroke="#000000" stroke-width="1.0" stroke-linecap="butt" d="m888.74615 136.01575l-1.1245728 1.124588l3.0897217 -1.124588l-3.0897217 -1.124588z" fill-rule="evenodd"/><path fill="#000000" fill-opacity="0.0" d="m410.1181 136.01575l297.51184 0" fill-rule="evenodd"/><path stroke="#cc0000" stroke-width="4.0" stroke-linejoin="round" stroke-linecap="butt" d="m425.2781 136.01575l267.1918 0" fill-rule="evenodd"/><path fill="#cc0000" stroke="#cc0000" stroke-width="4.0" stroke-linecap="butt" d="m412.1181 136.01575c0 -3.6340332 2.945984 -6.580002 6.580017 -6.580002c3.6340332 0 6.5799866 2.9459686 6.5799866 6.580002c0 3.6340332 -2.9459534 6.580002 -6.5799866 6.580002c-3.6340332 0 -6.580017 -2.9459686 -6.580017 -6.580002z" fill-rule="nonzero"/><path fill="#cc0000" stroke="#cc0000" stroke-width="4.0" stroke-linecap="butt" d="m705.62994 136.01575c0 3.6340332 -2.945984 6.580002 -6.580017 6.580002c-3.6340332 0 -6.580017 -2.9459686 -6.580017 -6.580002c0 -3.6340332 2.945984 -6.580002 6.580017 -6.580002c3.6340332 0 6.580017 2.9459686 6.580017 6.580002z" fill-rule="nonzero"/></g></svg>