<svg version="1.1" viewBox="0.0 0.0 956.7270341207349 299.31758530183725" fill="none" stroke="none" stroke-linecap="square" stroke-miterlimit="10" xmlns:xlink="http://www.w3.org/1999/xlink" xmlns="http://www.w3.org/2000/svg"><clipPath id="p.0"><path d="m0 0l956.72705 0l0 299.3176l-956.72705 0l0 -299.3176z" clip-rule="nonzero"/></clipPath><g clip-path="url(#p.0)"><path fill="#000000" fill-opacity="0.0" d="m0 0l956.72705 0l0 299.3176l-956.72705 0z" fill-rule="evenodd"/><path fill="#000000" fill-opacity="0.0" d="m43.82677 263.10236l865.8898 0" fill-rule="evenodd"/><path stroke="#000000" stroke-width="4.0" stroke-linejoin="round" stroke-linecap="butt" d="m43.82677 263.10236l852.1814 0" fill-rule="evenodd"/><path fill="#000000" stroke="#000000" stroke-width="4.0" stroke-linecap="butt" d="m896.0082 263.10236l-4.498352 4.498352l12.35907 -4.498352l-12.35907 -4.4983215z" fill-rule="evenodd"/><path fill="#000000" fill-opacity="0.0" d="m809.31757 97.59055l0 166.4567" fill-rule="evenodd"/><path stroke="#000000" stroke-width="1.0" stroke-linejoin="round" stroke-linecap="butt" stroke-dasharray="1.0,3.0" d="m809.31757 97.59055l0 166.4567" fill-rule="evenodd"/><path fill="#000000" fill-opacity="0.0" d="m676.6667 144.01575l-0.06298828 120.031494" fill-rule="evenodd"/><path stroke="#000000" stroke-width="1.0" stroke-linejoin="round" stroke-linecap="butt" stroke-dasharray="1.0,3.0" d="m676.6667 144.01575l-0.06298828 120.031494" fill-rule="evenodd"/><path fill="#000000" fill-opacity="0.0" d="m395.18372 142.7979l-0.06298828 120.03151" fill-rule="evenodd"/><path stroke="#000000" stroke-width="1.0" stroke-linejoin="round" stroke-linecap="butt" stroke-dasharray="1.0,3.0" d="m395.18372 142.7979l-0.06298828 120.03151" fill-rule="evenodd"/><path fill="#000000" fill-opacity="0.0" d="m298.58005 95.12336l0 167.71655" fill-rule="evenodd"/><path stroke="#000000" stroke-width="1.0" stroke-linejoin="round" stroke-linecap="butt" stroke-dasharray="1.0,3.0" d="m298.58005 95.12336l0 167.71655" fill-rule="evenodd"/><path fill="#000000" fill-opacity="0.0" d="m148.6063 54.02887l0 207.93701" fill-rule="evenodd"/><path stroke="#000000" stroke-width="1.0" stroke-linejoin="round" stroke-linecap="butt" stroke-dasharray="1.0,3.0" d="m148.6063 54.02887l0 207.93701" fill-rule="evenodd"/><path fill="#000000" fill-opacity="0.0" d="m138.76903 262.8504l164.34645 0" fill-rule="evenodd"/><path stroke="#6aa84f" stroke-width="4.0" stroke-linejoin="round" stroke-linecap="butt" d="m153.92903 262.8504l134.02644 0" fill-rule="evenodd"/><path fill="#6aa84f" stroke="#6aa84f" stroke-width="4.0" stroke-linecap="butt" d="m140.76903 262.8504c0 -3.6340332 2.9459686 -6.580017 6.580002 -6.580017c3.6340332 0 6.580002 2.945984 6.580002 6.580017c0 3.6340332 -2.9459686 6.5799866 -6.580002 6.5799866c-3.6340332 0 -6.580002 -2.9459534 -6.580002 -6.5799866z" fill-rule="nonzero"/><path fill="#6aa84f" stroke="#6aa84f" stroke-width="4.0" stroke-linecap="butt" d="m301.11548 262.8504c0 3.6340332 -2.9459534 6.5799866 -6.5799866 6.5799866c-3.6340332 0 -6.580017 -2.9459534 -6.580017 -6.5799866c0 -3.6340332 2.945984 -6.580017 6.580017 -6.580017c3.6340332 0 6.5799866 2.945984 6.5799866 6.580017z" fill-rule="nonzero"/><path fill="#000000" fill-opacity="0.0" d="m43.82677 54.74803l865.8898 0" fill-rule="evenodd"/><path stroke="#000000" stroke-width="1.0" stroke-linejoin="round" stroke-linecap="butt" d="m43.82677 54.74803l862.46265 0" fill-rule="evenodd"/><path fill="#000000" stroke="#000000" stroke-width="1.0" stroke-linecap="butt" d="m906.2894 54.74803l-1.1245728 1.1245842l3.0897827 -1.1245842l-3.0897827 -1.1245842z" fill-rule="evenodd"/><path fill="#000000" fill-opacity="0.0" d="m138.76903 54.257217l336.8504 0.50393677" fill-rule="evenodd"/><path stroke="#6aa84f" stroke-width="4.0" stroke-linejoin="round" stroke-linecap="butt" d="m153.92902 54.279896l306.53043 0.45858002" fill-rule="evenodd"/><path fill="#6aa84f" stroke="#6aa84f" stroke-width="4.0" stroke-linecap="butt" d="m140.76903 54.26021c0.005432129 -3.6340294 2.9558105 -6.5755844 6.5898285 -6.5701485c3.6340332 0.0054397583 6.575592 2.9558067 6.57016 6.589836c-0.0054473877 3.6340294 -2.9558105 6.575588 -6.5898438 6.5701485c-3.6340332 -0.0054359436 -6.575577 -2.9558067 -6.5701447 -6.589836z" fill-rule="nonzero"/><path fill="#6aa84f" stroke="#6aa84f" stroke-width="4.0" stroke-linecap="butt" d="m473.61942 54.758163c-0.005432129 3.6340294 -2.9558105 6.5755844 -6.589813 6.5701485c-3.6340332 -0.0054359436 -6.575592 -2.9558067 -6.57016 -6.589836c0.005432129 -3.6340294 2.9558105 -6.5755844 6.5898438 -6.5701485c3.6340332 0.0054359436 6.5755615 2.9558067 6.5701294 6.589836z" fill-rule="nonzero"/><path fill="#000000" fill-opacity="0.0" d="m433.18372 18.257217l33.070892 0l0 42.015747l-33.070892 0z" fill-rule="evenodd"/><path fill="#000000" fill-opacity="0.0" d="m43.82677 96.61942l865.8898 0" fill-rule="evenodd"/><path stroke="#000000" stroke-width="1.0" stroke-linejoin="round" stroke-linecap="butt" d="m43.82677 96.61942l862.46265 0" fill-rule="evenodd"/><path fill="#000000" stroke="#000000" stroke-width="1.0" stroke-linecap="butt" d="m906.2894 96.61942l-1.1245728 1.1245804l3.0897827 -1.1245804l-3.0897827 -1.1245804z" fill-rule="evenodd"/><path fill="#000000" fill-opacity="0.0" d="m290.1181 96.61942l526.86615 0" fill-rule="evenodd"/><path stroke="#e69138" stroke-width="4.0" stroke-linejoin="round" stroke-linecap="butt" d="m305.2781 96.61942l496.5461 0" fill-rule="evenodd"/><path fill="#e69138" stroke="#e69138" stroke-width="4.0" stroke-linecap="butt" d="m292.1181 96.61942c0 -3.6340332 2.945984 -6.580002 6.580017 -6.580002c3.6340332 0 6.5799866 2.9459686 6.5799866 6.580002c0 3.6340332 -2.9459534 6.580002 -6.5799866 6.580002c-3.6340332 0 -6.580017 -2.9459686 -6.580017 -6.580002z" fill-rule="nonzero"/><path fill="#e69138" stroke="#e69138" stroke-width="4.0" stroke-linecap="butt" d="m814.98425 96.61942c0 3.6340332 -2.945984 6.580002 -6.580017 6.580002c-3.6340332 0 -6.579956 -2.9459686 -6.579956 -6.580002c0 -3.6340332 2.9459229 -6.580002 6.579956 -6.580002c3.6340332 0 6.580017 2.9459686 6.580017 6.580002z" fill-rule="nonzero"/><path fill="#000000" fill-opacity="0.0" d="m43.82677 144.01575l865.8898 0" fill-rule="evenodd"/><path stroke="#000000" stroke-width="1.0" stroke-linejoin="round" stroke-linecap="butt" d="m43.82677 144.01575l862.46265 0" fill-rule="evenodd"/><path fill="#000000" stroke="#000000" stroke-width="1.0" stroke-linecap="butt" d="m906.2894 144.01575l-1.1245728 1.124588l3.0897827 -1.124588l-3.0897827 -1.124588z" fill-rule="evenodd"/><path fill="#000000" fill-opacity="0.0" d="m386.1181 144.01575l297.51184 0" fill-rule="evenodd"/><path stroke="#cc0000" stroke-width="4.0" stroke-linejoin="round" stroke-linecap="butt" d="m401.2781 144.01575l267.1918 0" fill-rule="evenodd"/><path fill="#cc0000" stroke="#cc0000" stroke-width="4.0" stroke-linecap="butt" d="m388.1181 144.01575c0 -3.6340332 2.945984 -6.580002 6.580017 -6.580002c3.6340332 0 6.5799866 2.9459686 6.5799866 6.580002c0 3.6340332 -2.9459534 6.580002 -6.5799866 6.580002c-3.6340332 0 -6.580017 -2.9459686 -6.580017 -6.580002z" fill-rule="nonzero"/><path fill="#cc0000" stroke="#cc0000" stroke-width="4.0" stroke-linecap="butt" d="m681.62994 144.01575c0 3.6340332 -2.945984 6.580002 -6.580017 6.580002c-3.6340332 0 -6.580017 -2.9459686 -6.580017 -6.580002c0 -3.6340332 2.945984 -6.580002 6.580017 -6.580002c3.6340332 0 6.580017 2.9459686 6.580017 6.580002z" fill-rule="nonzero"/><path fill="#000000" fill-opacity="0.0" d="m295.72964 263.10236l102.74017 0" fill-rule="evenodd"/><path stroke="#e69138" stroke-width="4.0" stroke-linejoin="round" stroke-linecap="butt" d="m310.88965 263.10236l72.4202 0" fill-rule="evenodd"/><path fill="#e69138" stroke="#e69138" stroke-width="4.0" stroke-linecap="butt" d="m297.72964 263.10236c0 -3.6340332 2.945984 -6.5799866 6.580017 -6.5799866c3.6340332 0 6.5799866 2.9459534 6.5799866 6.5799866c0 3.6340332 -2.9459534 6.580017 -6.5799866 6.580017c-3.6340332 0 -6.580017 -2.945984 -6.580017 -6.580017z" fill-rule="nonzero"/><path fill="#e69138" stroke="#e69138" stroke-width="4.0" stroke-linecap="butt" d="m396.46982 263.10236c0 3.6340332 -2.9459534 6.580017 -6.5799866 6.580017c-3.6340332 0 -6.580017 -2.945984 -6.580017 -6.580017c0 -3.6340332 2.945984 -6.5799866 6.580017 -6.5799866c3.6340332 0 6.5799866 2.9459534 6.5799866 6.5799866z" fill-rule="nonzero"/><path fill="#000000" fill-opacity="0.0" d="m390.25198 262.40683l293.38583 0" fill-rule="evenodd"/><path stroke="#cc0000" stroke-width="4.0" stroke-linejoin="round" stroke-linecap="butt" d="m405.41196 262.40683l263.06583 0" fill-rule="evenodd"/><path fill="#cc0000" stroke="#cc0000" stroke-width="4.0" stroke-linecap="butt" d="m392.25198 262.40683c0 -3.6340332 2.9459534 -6.580002 6.5799866 -6.580002c3.6340332 0 6.5799866 2.9459686 6.5799866 6.580002c0 3.6340332 -2.9459534 6.5799866 -6.5799866 6.5799866c-3.6340332 0 -6.5799866 -2.9459534 -6.5799866 -6.5799866z" fill-rule="nonzero"/><path fill="#cc0000" stroke="#cc0000" stroke-width="4.0" stroke-linecap="butt" d="m681.6378 262.40683c0 3.6340332 -2.945984 6.5799866 -6.580017 6.5799866c-3.6340332 0 -6.580017 -2.9459534 -6.580017 -6.5799866c0 -3.6340332 2.945984 -6.580002 6.580017 -6.580002c3.6340332 0 6.580017 2.9459686 6.580017 6.580002z" fill-rule="nonzero"/><path fill="#000000" fill-opacity="0.0" d="m676.6667 263.10104l142.64563 0" fill-rule="evenodd"/><path stroke="#e69138" stroke-width="4.0" stroke-linejoin="round" stroke-linecap="butt" d="m691.82666 263.10104l112.32562 0" fill-rule="evenodd"/><path fill="#e69138" stroke="#e69138" stroke-width="4.0" stroke-linecap="butt" d="m678.6667 263.10104c0 -3.6340332 2.9459229 -6.5799866 6.579956 -6.5799866c3.6340332 0 6.580017 2.9459534 6.580017 6.5799866c0 3.6340332 -2.945984 6.580017 -6.580017 6.580017c-3.6340332 0 -6.579956 -2.945984 -6.579956 -6.580017z" fill-rule="nonzero"/><path fill="#e69138" stroke="#e69138" stroke-width="4.0" stroke-linecap="butt" d="m817.3123 263.10104c0 3.6340332 -2.9459229 6.580017 -6.579956 6.580017c-3.6340332 0 -6.580017 -2.945984 -6.580017 -6.580017c0 -3.6340332 2.945984 -6.5799866 6.580017 -6.5799866c3.6340332 0 6.579956 2.9459534 6.579956 6.5799866z" fill-rule="nonzero"/><path fill="#000000" fill-opacity="0.0" d="m148.6063 221.33858l41.921265 0l0 42.015762l-41.921265 0z" fill-rule="evenodd"/><path fill="#000000" d="m161.1688 236.00858l0 2.390625l1.84375 0l0 1.3125l-1.84375 0l0 6.109375q0 0.59375 0.234375 0.890625q0.25 0.296875 0.84375 0.296875q0.296875 0 0.8125 -0.109375l0 1.359375q-0.671875 0.1875 -1.296875 0.1875q-1.125 0 -1.703125 -0.6875q-0.578125 -0.6875 -0.578125 -1.9375l0 -6.109375l-1.796875 0l0 -1.3125l1.796875 0l0 -2.390625l1.6875 0zm11.953629 6.59375q0 2.953125 -1.015625 4.40625q-1.015625 1.4375 -3.15625 1.4375q-2.125 0 -3.15625 -1.40625q-1.015625 -1.40625 -1.046875 -4.203125l0 -2.25q0 -2.9375 1.0 -4.359375q1.015625 -1.421875 3.1875 -1.421875q2.140625 0 3.140625 1.375q1.015625 1.375 1.046875 4.234375l0 2.1875zm-1.6875 -2.3125q0 -2.140625 -0.609375 -3.109375q-0.59375 -0.984375 -1.890625 -0.984375q-1.296875 0 -1.890625 0.984375q-0.59375 0.96875 -0.609375 2.984375l0 2.703125q0 2.140625 0.625 3.171875q0.625 1.03125 1.890625 1.03125q1.25 0 1.84375 -0.96875q0.609375 -0.96875 0.640625 -3.046875l0 -2.765625z" fill-rule="nonzero"/><path fill="#000000" fill-opacity="0.0" d="m298.58005 221.33858l41.921265 0l0 42.015762l-41.921265 0z" fill-rule="evenodd"/><path fill="#000000" d="m311.14255 236.00858l0 2.390625l1.84375 0l0 1.3125l-1.84375 0l0 6.109375q0 0.59375 0.234375 0.890625q0.25 0.296875 0.84375 0.296875q0.296875 0 0.8125 -0.109375l0 1.359375q-0.671875 0.1875 -1.296875 0.1875q-1.125 0 -1.703125 -0.6875q-0.578125 -0.6875 -0.578125 -1.9375l0 -6.109375l-1.796875 0l0 -1.3125l1.796875 0l0 -2.390625l1.6875 0zm9.172394 12.25l-1.6875 0l0 -11.234375l-3.40625 1.25l0 -1.53125l4.828125 -1.8125l0.265625 0l0 13.328125z" fill-rule="nonzero"/><path fill="#000000" fill-opacity="0.0" d="m395.12073 221.33858l41.921265 0l0 42.015762l-41.921265 0z" fill-rule="evenodd"/><path fill="#000000" d="m407.68323 236.00858l0 2.390625l1.84375 0l0 1.3125l-1.84375 0l0 6.109375q0 0.59375 0.234375 0.890625q0.25 0.296875 0.84375 0.296875q0.296875 0 0.8125 -0.109375l0 1.359375q-0.671875 0.1875 -1.296875 0.1875q-1.125 0 -1.703125 -0.6875q-0.578125 -0.6875 -0.578125 -1.9375l0 -6.109375l-1.796875 0l0 -1.3125l1.796875 0l0 -2.390625l1.6875 0zm12.328644 12.25l-8.6875 0l0 -1.21875l4.578125 -5.09375q1.03125 -1.15625 1.40625 -1.875q0.390625 -0.734375 0.390625 -1.5q0 -1.046875 -0.625 -1.703125q-0.625 -0.671875 -1.671875 -0.671875q-1.265625 0 -1.96875 0.71875q-0.6875 0.71875 -0.6875 1.984375l-1.6875 0q0 -1.828125 1.171875 -2.953125q1.1875 -1.140625 3.171875 -1.140625q1.84375 0 2.921875 0.984375q1.078125 0.96875 1.078125 2.578125q0 1.953125 -2.5 4.65625l-3.546875 3.859375l6.65625 0l0 1.375z" fill-rule="nonzero"/><path fill="#000000" fill-opacity="0.0" d="m676.6037 221.33858l41.921265 0l0 42.015762l-41.921265 0z" fill-rule="evenodd"/><path fill="#000000" d="m689.1662 236.00858l0 2.390625l1.84375 0l0 1.3125l-1.84375 0l0 6.109375q0 0.59375 0.234375 0.890625q0.25 0.296875 0.84375 0.296875q0.296875 0 0.8125 -0.109375l0 1.359375q-0.671875 0.1875 -1.296875 0.1875q-1.125 0 -1.703125 -0.6875q-0.578125 -0.6875 -0.578125 -1.9375l0 -6.109375l-1.796875 0l0 -1.3125l1.796875 0l0 -2.390625l1.6875 0zm10.750488 7.796875l1.84375 0l0 1.375l-1.84375 0l0 3.078125l-1.703125 0l0 -3.078125l-6.03125 0l0 -1.0l5.9375 -9.1875l1.796875 0l0 8.8125zm-5.828125 0l4.125 0l0 -6.5l-0.1875 0.359375l-3.9375 6.140625z" fill-rule="nonzero"/><path fill="#000000" fill-opacity="0.0" d="m809.31757 221.33858l41.921265 0l0 42.015762l-41.921265 0z" fill-rule="evenodd"/><path fill="#000000" d="m821.88007 236.00858l0 2.390625l1.84375 0l0 1.3125l-1.84375 0l0 6.109375q0 0.59375 0.234375 0.890625q0.25 0.296875 0.84375 0.296875q0.296875 0 0.8125 -0.109375l0 1.359375q-0.671875 0.1875 -1.296875 0.1875q-1.125 0 -1.703125 -0.6875q-0.578125 -0.6875 -0.578125 -1.9375l0 -6.109375l-1.796875 0l0 -1.3125l1.796875 0l0 -2.390625l1.6875 0zm4.4067993 5.59375l0.671875 -6.609375l6.796875 0l0 1.5625l-5.359375 0l-0.40625 3.609375q0.984375 -0.5625 2.21875 -0.5625q1.8125 0 2.875 1.203125q1.0625 1.1875 1.0625 3.21875q0 2.0625 -1.109375 3.25q-1.09375 1.171875 -3.09375 1.171875q-1.75 0 -2.859375 -0.96875q-1.109375 -0.984375 -1.265625 -2.703125l1.59375 0q0.15625 1.140625 0.8125 1.71875q0.65625 0.578125 1.71875 0.578125q1.1875 0 1.84375 -0.796875q0.671875 -0.8125 0.671875 -2.21875q0 -1.328125 -0.71875 -2.140625q-0.71875 -0.8125 -1.921875 -0.8125q-1.109375 0 -1.734375 0.484375l-0.453125 0.375l-1.34375 -0.359375z" fill-rule="nonzero"/><path fill="#000000" fill-opacity="0.0" d="m148.6063 12.745407l41.921265 0l0 42.015747l-41.921265 0z" fill-rule="evenodd"/><path fill="#000000" d="m161.1688 27.415405l0 2.390625l1.84375 0l0 1.3125l-1.84375 0l0 6.109375q0 0.59375 0.234375 0.890625q0.25 0.296875 0.84375 0.296875q0.296875 0 0.8125 -0.109375l0 1.359375q-0.671875 0.1875 -1.296875 0.1875q-1.125 0 -1.703125 -0.6875q-0.578125 -0.6875 -0.578125 -1.9375l0 -6.109375l-1.796875 0l0 -1.3125l1.796875 0l0 -2.390625l1.6875 0zm11.953629 6.59375q0 2.953125 -1.015625 4.40625q-1.015625 1.4375 -3.15625 1.4375q-2.125 0 -3.15625 -1.40625q-1.015625 -1.40625 -1.046875 -4.203125l0 -2.25q0 -2.9375 1.0 -4.359375q1.015625 -1.421875 3.1875 -1.421875q2.140625 0 3.140625 1.375q1.015625 1.375 1.046875 4.234375l0 2.1875zm-1.6875 -2.3125q0 -2.140625 -0.609375 -3.109375q-0.59375 -0.984375 -1.890625 -0.984375q-1.296875 0 -1.890625 0.984375q-0.59375 0.96875 -0.609375 2.984375l0 2.703125q0 2.140625 0.625 3.171875q0.625 1.03125 1.890625 1.03125q1.25 0 1.84375 -0.96875q0.609375 -0.96875 0.640625 -3.046875l0 -2.765625z" fill-rule="nonzero"/><path fill="#000000" fill-opacity="0.0" d="m295.72964 54.603676l41.921265 0l0 42.015747l-41.921265 0z" fill-rule="evenodd"/><path fill="#000000" d="m308.29214 69.273674l0 2.390625l1.84375 0l0 1.3125l-1.84375 0l0 6.109375q0 0.59375 0.234375 0.890625q0.25 0.296875 0.84375 0.296875q0.296875 0 0.8125 -0.109375l0 1.359375q-0.671875 0.1875 -1.296875 0.1875q-1.125 0 -1.703125 -0.6875q-0.578125 -0.6875 -0.578125 -1.9375l0 -6.109375l-1.796875 0l0 -1.3125l1.796875 0l0 -2.390625l1.6875 0zm9.172394 12.25l-1.6875 0l0 -11.234375l-3.40625 1.25l0 -1.53125l4.828125 -1.8125l0.265625 0l0 13.328125z" fill-rule="nonzero"/><path fill="#000000" fill-opacity="0.0" d="m466.2546 12.745407l41.921234 0l0 42.015747l-41.921234 0z" fill-rule="evenodd"/><path fill="#000000" d="m478.8171 27.415405l0 2.390625l1.84375 0l0 1.3125l-1.84375 0l0 6.109375q0 0.59375 0.234375 0.890625q0.25 0.296875 0.84375 0.296875q0.296875 0 0.8125 -0.109375l0 1.359375q-0.671875 0.1875 -1.296875 0.1875q-1.125 0 -1.703125 -0.6875q-0.578125 -0.6875 -0.578125 -1.9375l0 -6.109375l-1.796875 0l0 -1.3125l1.796875 0l0 -2.390625l1.6875 0zm6.0786133 4.796875l1.265625 0q1.203125 -0.015625 1.875 -0.625q0.6875 -0.609375 0.6875 -1.65625q0 -2.328125 -2.3125 -2.328125q-1.09375 0 -1.75 0.625q-0.65625 0.625 -0.65625 1.65625l-1.6875 0q0 -1.578125 1.15625 -2.625q1.15625 -1.046875 2.9375 -1.046875q1.875 0 2.9375 1.0q1.0625 1.0 1.0625 2.765625q0 0.859375 -0.5625 1.671875q-0.5625 0.8125 -1.515625 1.203125q1.09375 0.359375 1.6875 1.15625q0.59375 0.796875 0.59375 1.953125q0 1.796875 -1.171875 2.84375q-1.15625 1.046875 -3.03125 1.046875q-1.859375 0 -3.03125 -1.015625q-1.171875 -1.015625 -1.171875 -2.671875l1.6875 0q0 1.046875 0.6875 1.6875q0.6875 0.625 1.828125 0.625q1.21875 0 1.859375 -0.640625q0.65625 -0.640625 0.65625 -1.828125q0 -1.15625 -0.71875 -1.78125q-0.703125 -0.625 -2.046875 -0.640625l-1.265625 0l0 -1.375z" fill-rule="nonzero"/><path fill="#000000" fill-opacity="0.0" d="m395.12073 102.0l41.921265 0l0 42.015747l-41.921265 0z" fill-rule="evenodd"/><path fill="#000000" d="m407.68323 116.67l0 2.390625l1.84375 0l0 1.3125l-1.84375 0l0 6.109375q0 0.59375 0.234375 0.890625q0.25 0.296875 0.84375 0.296875q0.296875 0 0.8125 -0.109375l0 1.359375q-0.671875 0.1875 -1.296875 0.1875q-1.125 0 -1.703125 -0.6875q-0.578125 -0.6875 -0.578125 -1.9375l0 -6.109375l-1.796875 0l0 -1.3125l1.796875 0l0 -2.390625l1.6875 0zm12.328644 12.25l-8.6875 0l0 -1.21875l4.578125 -5.09375q1.03125 -1.15625 1.40625 -1.875q0.390625 -0.734375 0.390625 -1.5q0 -1.046875 -0.625 -1.703125q-0.625 -0.671875 -1.671875 -0.671875q-1.265625 0 -1.96875 0.71875q-0.6875 0.71875 -0.6875 1.984375l-1.6875 0q0 -1.828125 1.171875 -2.953125q1.1875 -1.140625 3.171875 -1.140625q1.84375 0 2.921875 0.984375q1.078125 0.96875 1.078125 2.578125q0 1.953125 -2.5 4.65625l-3.546875 3.859375l6.65625 0l0 1.375z" fill-rule="nonzero"/><path fill="#000000" fill-opacity="0.0" d="m676.6037 102.0l41.921265 0l0 42.015747l-41.921265 0z" fill-rule="evenodd"/><path fill="#000000" d="m689.1662 116.67l0 2.390625l1.84375 0l0 1.3125l-1.84375 0l0 6.109375q0 0.59375 0.234375 0.890625q0.25 0.296875 0.84375 0.296875q0.296875 0 0.8125 -0.109375l0 1.359375q-0.671875 0.1875 -1.296875 0.1875q-1.125 0 -1.703125 -0.6875q-0.578125 -0.6875 -0.578125 -1.9375l0 -6.109375l-1.796875 0l0 -1.3125l1.796875 0l0 -2.390625l1.6875 0zm10.750488 7.796875l1.84375 0l0 1.375l-1.84375 0l0 3.078125l-1.703125 0l0 -3.078125l-6.03125 0l0 -1.0l5.9375 -9.1875l1.796875 0l0 8.8125zm-5.828125 0l4.125 0l0 -6.5l-0.1875 0.359375l-3.9375 6.140625z" fill-rule="nonzero"/><path fill="#000000" fill-opacity="0.0" d="m809.31757 55.16142l41.921265 0l0 42.015743l-41.921265 0z" fill-rule="evenodd"/><path fill="#000000" d="m821.88007 69.83141l0 2.390625l1.84375 0l0 1.3125l-1.84375 0l0 6.109375q0 0.59375 0.234375 0.890625q0.25 0.296875 0.84375 0.296875q0.296875 0 0.8125 -0.109375l0 1.359375q-0.671875 0.1875 -1.296875 0.1875q-1.125 0 -1.703125 -0.6875q-0.578125 -0.6875 -0.578125 -1.9375l0 -6.109375l-1.796875 0l0 -1.3125l1.796875 0l0 -2.390625l1.6875 0zm4.4067993 5.59375l0.671875 -6.609375l6.796875 0l0 1.5625l-5.359375 0l-0.40625 3.609375q0.984375 -0.5625 2.21875 -0.5625q1.8125 0 2.875 1.203125q1.0625 1.1875 1.0625 3.21875q0 2.0625 -1.109375 3.25q-1.09375 1.171875 -3.09375 1.171875q-1.75 0 -2.859375 -0.96875q-1.109375 -0.984375 -1.265625 -2.703125l1.59375 0q0.15625 1.140625 0.8125 1.71875q0.65625 0.578125 1.71875 0.578125q1.1875 0 1.84375 -0.796875q0.671875 -0.8125 0.671875 -2.21875q0 -1.328125 -0.71875 -2.140625q-0.71875 -0.8125 -1.921875 -0.8125q-1.109375 0 -1.734375 0.484375l-0.453125 0.375l-1.34375 -0.359375z" fill-rule="nonzero"/></g></svg>