<svg version="1.1" viewBox="0.0 0.0 956.7270341207349 100.0" fill="none" stroke="none" stroke-linecap="square" stroke-miterlimit="10" xmlns:xlink="http://www.w3.org/1999/xlink" xmlns="http://www.w3.org/2000/svg"><clipPath id="p.0"><path d="m0 0l956.72705 0l0 100.0l-956.72705 0l0 -100.0z" clip-rule="nonzero"/></clipPath><g clip-path="url(#p.0)"><path fill="#000000" fill-opacity="0.0" d="m0 0l956.72705 0l0 100.0l-956.72705 0z" fill-rule="evenodd"/><path fill="#000000" fill-opacity="0.0" d="m67.826775 54.74803l824.34644 0" fill-rule="evenodd"/><path stroke="#000000" stroke-width="1.0" stroke-linejoin="round" stroke-linecap="butt" d="m67.826775 54.74803l820.9194 0" fill-rule="evenodd"/><path fill="#000000" stroke="#000000" stroke-width="1.0" stroke-linecap="butt" d="m888.74615 54.74803l-1.1245728 1.1245842l3.0897217 -1.1245842l-3.0897217 -1.1245842z" fill-rule="evenodd"/><path fill="#000000" fill-opacity="0.0" d="m202.1181 54.74803l297.5118 0" fill-rule="evenodd"/><path stroke="#6aa84f" stroke-width="4.0" stroke-linejoin="round" stroke-linecap="butt" d="m217.2781 54.74803l267.19183 0" fill-rule="evenodd"/><path fill="#6aa84f" stroke="#6aa84f" stroke-width="4.0" stroke-linecap="butt" d="m204.1181 54.74803c0 -3.6340332 2.9459686 -6.579998 6.580002 -6.579998c3.6340332 0 6.580002 2.9459648 6.580002 6.579998c0 3.6340332 -2.9459686 6.579998 -6.580002 6.579998c-3.6340332 0 -6.580002 -2.9459648 -6.580002 -6.579998z" fill-rule="nonzero"/><path fill="#6aa84f" stroke="#6aa84f" stroke-width="4.0" stroke-linecap="butt" d="m497.6299 54.74803c0 3.6340332 -2.9459534 6.579998 -6.5799866 6.579998c-3.6340332 0 -6.580017 -2.9459648 -6.580017 -6.579998c0 -3.6340332 2.945984 -6.579998 6.580017 -6.579998c3.6340332 0 6.5799866 2.9459648 6.5799866 6.579998z" fill-rule="nonzero"/><path fill="#000000" fill-opacity="0.0" d="m210.8819 12.732284l155.55905 0l0 42.015747l-155.55905 0z" fill-rule="evenodd"/><path fill="#000000" d="m226.89752 37.042908q0 -0.6875 -0.515625 -1.0625q-0.515625 -0.375 -1.796875 -0.640625q-1.28125 -0.28125 -2.03125 -0.65625q-0.75 -0.390625 -1.109375 -0.921875q-0.359375 -0.53125 -0.359375 -1.265625q0 -1.2031269 1.015625 -2.031252q1.03125 -0.84375 2.625 -0.84375q1.671875 0 2.71875 0.859375q1.046875 0.859375 1.046875 2.218752l-1.6875 0q0 -0.7031269 -0.59375 -1.2031269q-0.59375 -0.5 -1.484375 -0.5q-0.921875 0 -1.4375 0.40625q-0.515625 0.390625 -0.515625 1.0468769q0 0.609375 0.484375 0.921875q0.484375 0.3125 1.734375 0.59375q1.265625 0.28125 2.046875 0.671875q0.78125 0.390625 1.15625 0.9375q0.390625 0.546875 0.390625 1.34375q0 1.328125 -1.0625 2.125q-1.046875 0.796875 -2.734375 0.796875q-1.1875 0 -2.109375 -0.421875q-0.90625 -0.421875 -1.421875 -1.171875q-0.515625 -0.75 -0.515625 -1.625l1.6875 0q0.046875 0.84375 0.671875 1.34375q0.640625 0.5 1.6875 0.5q0.953125 0 1.53125 -0.390625q0.578125 -0.390625 0.578125 -1.03125zm6.166504 -9.640627l0 2.390625l1.84375 0l0 1.3125l-1.84375 0l0 6.109377q0 0.59375 0.234375 0.890625q0.25 0.296875 0.84375 0.296875q0.296875 0 0.8125 -0.109375l0 1.359375q-0.671875 0.1875 -1.296875 0.1875q-1.125 0 -1.703125 -0.6875q-0.578125 -0.6875 -0.578125 -1.9375l0 -6.109377l-1.796875 0l0 -1.3125l1.796875 0l0 -2.390625l1.6875 0zm9.891129 12.250002q-0.140625 -0.296875 -0.234375 -1.03125q-1.171875 1.21875 -2.8125 1.21875q-1.453125 0 -2.390625 -0.828125q-0.921875 -0.828125 -0.921875 -2.09375q0 -1.53125 1.15625 -2.375q1.171875 -0.859375 3.296875 -0.859375l1.640625 0l0 -0.78125q0 -0.890625 -0.53125 -1.4062519q-0.515625 -0.53125 -1.546875 -0.53125q-0.90625 0 -1.515625 0.46875q-0.609375 0.453125 -0.609375 1.0937519l-1.703125 0q0 -0.7343769 0.515625 -1.4218769q0.53125 -0.6875 1.421875 -1.078125q0.90625 -0.40625 1.984375 -0.40625q1.703125 0 2.671875 0.859375q0.96875 0.84375 1.0 2.328127l0 4.53125q0 1.359375 0.34375 2.171875l0 0.140625l-1.765625 0zm-2.796875 -1.28125q0.796875 0 1.5 -0.40625q0.71875 -0.421875 1.03125 -1.078125l0 -2.015625l-1.3125 0q-3.109375 0 -3.109375 1.8125q0 0.796875 0.53125 1.25q0.53125 0.4375 1.359375 0.4375zm11.632355 -7.062502q-0.390625 -0.0625 -0.84375 -0.0625q-1.65625 0 -2.25 1.4062519l0 7.0l-1.671875 0l0 -9.859377l1.640625 0l0.015625 1.140625q0.828125 -1.3125 2.359375 -1.3125q0.484375 0 0.75 0.125l0 1.5625zm4.2842255 -3.90625l0 2.390625l1.84375 0l0 1.3125l-1.84375 0l0 6.109377q0 0.59375 0.234375 0.890625q0.25 0.296875 0.84375 0.296875q0.296875 0 0.8125 -0.109375l0 1.359375q-0.671875 0.1875 -1.296875 0.1875q-1.1249847 0 -1.7031097 -0.6875q-0.578125 -0.6875 -0.578125 -1.9375l0 -6.109377l-1.796875 0l0 -1.3125l1.796875 0l0 -2.390625l1.6874847 0z" fill-rule="nonzero"/><path fill="#000000" fill-opacity="0.0" d="m490.2546 12.732284l99.18106 0l0 42.015747l-99.18106 0z" fill-rule="evenodd"/><path fill="#000000" d="m504.61398 39.839783q-2.0 0 -3.265625 -1.3125q-1.25 -1.328125 -1.25 -3.53125l0 -0.3125q0 -1.46875 0.5625 -2.609375q0.5625 -1.1562519 1.5625 -1.7968769q1.015625 -0.65625 2.1875 -0.65625q1.921875 0 2.984375 1.265625q1.0625 1.2656269 1.0625 3.625002l0 0.6875l-6.671875 0q0.03125 1.46875 0.84375 2.375q0.828125 0.890625 2.078125 0.890625q0.890625 0 1.515625 -0.359375q0.625 -0.375 1.078125 -0.96875l1.03125 0.796875q-1.234375 1.90625 -3.71875 1.90625zm-0.203125 -8.843752q-1.015625 0 -1.71875 0.75q-0.6875 0.7343769 -0.84375 2.078127l4.9375 0l0 -0.125q-0.078125 -1.28125 -0.703125 -1.9843769q-0.609375 -0.71875 -1.671875 -0.71875zm7.6025696 -1.203125l0.046875 1.234375q1.125 -1.40625 2.953125 -1.40625q3.125 0 3.15625 3.515627l0 6.515625l-1.6875 0l0 -6.515625q-0.015625 -1.078125 -0.5 -1.5781269q-0.46875 -0.515625 -1.484375 -0.515625q-0.8125 0 -1.4375 0.4375q-0.609375 0.4375 -0.96875 1.1562519l0 7.015625l-1.6719055 0l0 -9.859377l1.5937805 0zm8.278076 4.843752q0 -2.265625 1.078125 -3.640627q1.078125 -1.375 2.8125 -1.375q1.734375 0 2.75 1.171875l0 -5.140625l1.6875 0l0 14.000002l-1.546875 0l-0.09375 -1.0625q-1.0 1.25 -2.8125 1.25q-1.703125 0 -2.796875 -1.40625q-1.078125 -1.40625 -1.078125 -3.65625l0 -0.140625zm1.6875 0.203125q0 1.671875 0.6875 2.625q0.703125 0.9375 1.921875 0.9375q1.609375 0 2.34375 -1.4375l0 -4.53125q-0.765625 -1.3906269 -2.328125 -1.3906269q-1.234375 0 -1.9375 0.953125q-0.6875 0.9531269 -0.6875 2.843752z" fill-rule="nonzero"/><path fill="#000000" fill-opacity="0.0" d="m457.18372 18.257217l33.070892 0l0 42.015747l-33.070892 0z" fill-rule="evenodd"/></g></svg>